<svg xmlns="http://www.w3.org/2000/svg" width="32" height="32" viewBox="0 0 32 32">
  <g id="Group_39640" data-name="Group 39640" transform="translate(-106 -322)">
    <g id="Rectangle_23115" data-name="Rectangle 23115" transform="translate(106 322)" fill="#101010" stroke="#707070" stroke-width="1" opacity="0">
      <rect width="32" height="32" stroke="none"/>
      <rect x="0.5" y="0.5" width="31" height="31" fill="none"/>
    </g>
    <path id="plane-departure" d="M1.245,17.479,3.666,19.2a7.2,7.2,0,0,0,4.167,1.33,7.054,7.054,0,0,0,3.047-.688L25.992,13.2a3.514,3.514,0,0,0-2.958-6.376L19.368,8.456,11.646,3.689a3.5,3.5,0,0,0-3.561-.363l-.911.427A2.334,2.334,0,0,0,6.62,7.613l4.9,4.34L7.335,13.822,3.768,12.513a2.82,2.82,0,0,0-3.191.923,2.7,2.7,0,0,0-.539,2.072,2.948,2.948,0,0,0,1.205,1.969ZM8.167,5.866l.905-.425a1.225,1.225,0,0,1,1.266.176l6.453,3.988-2.924,1.3Zm-5.75,9.009a.488.488,0,0,1,.39-.2c.058,0,4.17,1.5,4.17,1.5a1.165,1.165,0,0,0,.877-.029l16.138-7.2.015-.007a1.17,1.17,0,0,1,1.549.568,1.193,1.193,0,0,1-.537,1.566L9.907,17.723a4.847,4.847,0,0,1-4.89-.422L2.6,15.579a.616.616,0,0,1-.249-.406.378.378,0,0,1,.068-.3ZM28,26.333A1.166,1.166,0,0,1,26.833,27.5H1.167a1.167,1.167,0,0,1,0-2.333H26.833A1.166,1.166,0,0,1,28,26.333Z" transform="translate(108 323)" fill="#101010"/>
  </g>
</svg>
