<svg xmlns="http://www.w3.org/2000/svg" width="32" height="32" viewBox="0 0 32 32">
  <g id="Group_39642" data-name="Group 39642" transform="translate(-220 -304)">
    <g id="Rectangle_23116" data-name="Rectangle 23116" transform="translate(220 304)" fill="#101010" stroke="#707070" stroke-width="1" opacity="0">
      <rect width="32" height="32" stroke="none"/>
      <rect x="0.5" y="0.5" width="31" height="31" fill="none"/>
    </g>
    <path id="plane-arrival" d="M2.675,9.429a7.621,7.621,0,0,0,4.292,6.038l13.792,6.17a3.425,3.425,0,0,0,4.613-1.719,3.5,3.5,0,0,0-1.791-4.6l-2.708-1.248-1.766-9.59a3.5,3.5,0,0,0-2.1-2.9l-.926-.394a2.334,2.334,0,0,0-3.249,2.151v7.028L9.138,8.66,7.755,5.118A2.788,2.788,0,0,0,4.949,3.34a2.7,2.7,0,0,0-1.91.97,2.954,2.954,0,0,0-.677,2.208l.311,2.911Zm12.492-6.1.919.392a1.227,1.227,0,0,1,.712,1.07l1.484,8.082-3.116-1.436V3.329ZM4.823,5.817a.374.374,0,0,1,.268-.147h.036a.478.478,0,0,1,.455.3L7.138,9.948a1.168,1.168,0,0,0,.6.635l14.9,6.865a1.169,1.169,0,0,1,.6,1.535,1.081,1.081,0,0,1-.619.586,1.106,1.106,0,0,1-.877-.049L7.946,13.349A5.267,5.267,0,0,1,5,9.18L4.684,6.269a.614.614,0,0,1,.139-.454ZM28,26.667a1.166,1.166,0,0,1-1.167,1.167H1.167a1.167,1.167,0,0,1,0-2.333H26.833A1.166,1.166,0,0,1,28,26.667Z" transform="translate(222 306.005)" fill="#101010"/>
  </g>
</svg>
