<svg xmlns="http://www.w3.org/2000/svg" width="16" height="16" viewBox="0 0 16 16">
  <path id="users-alt" d="M8,10.666A2.667,2.667,0,1,1,10.666,8,2.667,2.667,0,0,1,8,10.666Zm0-4A1.333,1.333,0,1,0,9.333,8,1.333,1.333,0,0,0,8,6.666Zm4,8.666a4,4,0,0,0-8,0,.667.667,0,0,0,1.333,0,2.667,2.667,0,1,1,5.333,0,.667.667,0,0,0,1.333,0Zm0-10a2.667,2.667,0,1,1,2.667-2.667A2.667,2.667,0,0,1,12,5.333Zm0-4a1.333,1.333,0,1,0,1.333,1.333A1.333,1.333,0,0,0,12,1.333ZM16,10a4,4,0,0,0-4-4,.667.667,0,0,0,0,1.333A2.667,2.667,0,0,1,14.666,10,.667.667,0,0,0,16,10ZM4,5.333A2.667,2.667,0,1,1,6.666,2.667,2.667,2.667,0,0,1,4,5.333Zm0-4A1.333,1.333,0,1,0,5.333,2.667,1.333,1.333,0,0,0,4,1.333ZM1.333,10A2.667,2.667,0,0,1,4,7.333.667.667,0,0,0,4,6a4,4,0,0,0-4,4,.667.667,0,0,0,1.333,0Z" fill="#101010"/>
</svg>
