<svg xmlns="http://www.w3.org/2000/svg" width="16.667" height="16.667" viewBox="0 0 16.667 16.667">
  <path id="calendar-clock_4_" data-name="calendar-clock (4)" d="M11.806,6.972a4.848,4.848,0,1,0,4.861,4.834A4.867,4.867,0,0,0,11.806,6.972Zm0,8.306a3.459,3.459,0,1,1,3.472-3.472A3.463,3.463,0,0,1,11.806,15.278Zm1.185-3.269a.694.694,0,1,1-.982.982l-.694-.694a.694.694,0,0,1-.2-.491V10.417a.694.694,0,0,1,1.389,0v1.1Zm3.676-7.148V6.25a.694.694,0,0,1-1.389,0V4.861a2.086,2.086,0,0,0-2.083-2.083H3.472A2.086,2.086,0,0,0,1.389,4.861v.694h6.25a.694.694,0,1,1,0,1.389H1.389v6.25a2.086,2.086,0,0,0,2.083,2.083H6.25a.694.694,0,0,1,0,1.389H3.472A3.476,3.476,0,0,1,0,13.194V4.861A3.476,3.476,0,0,1,3.472,1.389h.694V.694a.694.694,0,1,1,1.389,0v.694h5.556V.694a.694.694,0,0,1,1.389,0v.694h.694a3.476,3.476,0,0,1,3.472,3.472Z" transform="translate(0)" fill="#101010"/>
</svg>
